<?xml version="1.0" encoding="UTF-8"?>
<svg width="300" id="Layer_1" xmlns="http://www.w3.org/2000/svg" viewBox="0 0 383.49 154.72">
  <defs>
    <style>
      .cls-1 {
        fill: #fff;
      }

      .cls-2 {
        fill: #f68b1f;
      }

      .cls-3 {
        fill: #40515a;
      }
    </style>
  </defs>
  <path class="cls-2" d="M365.15.49l-29.57,7.83-96.34,25.81h0s-86.91,23.29-86.91,23.29c-6.12,1.64-12.6,1.21-18.45-1.21l-87.32,44.15c0,9.7,5.84,18.44,14.8,22.15l72.37,29.98c5.95,2.46,12.54,2.9,18.76,1.23l86.75-23.25h0s96.34-25.81,96.34-25.81l47.91-12.68V14.61c0-9.58-9.08-16.57-18.34-14.12Z"/>
  <path class="cls-3" d="M188.9,29.03l-42.44-17.58c-3.49-1.44-7.35-1.7-11-.72l-50.87,13.63h0s-56.49,15.14-56.49,15.14L0,46.93v45.37-41.11,47.1c0,5.69,3.42,10.81,8.68,12.99l42.44,17.58c3.49,1.44,7.35,1.7,11,.72l50.87-13.63h0s56.49-15.14,56.49-15.14l28.09-7.44v-45.37,41.11-47.1c0-5.69-3.42-10.81-8.68-12.99Z"/>
  <g>
    <path class="cls-1" d="M138.78,48.14l-11.99,3.22c-.53.14-1.04-.26-1.04-.8v-7.85c0-.37.25-.7.61-.8l11.99-3.22c.53-.14,1.04.26,1.04.8v7.85c0,.37-.25.7-.61.8Z"/>
    <g>
      <path class="cls-1" d="M32.36,101.64c-4.94,0-9.18-.68-12.72-2.05-3.54-1.37-6.45-2.96-8.73-4.78-.45-.42-.45-.85,0-1.27l6.34-6.64c.39-.37.84-.37,1.36,0,2.08,1.52,4.39,2.7,6.92,3.55,2.53.85,5.04,1.27,7.51,1.27s4.3-.39,5.51-1.18c1.2-.79,1.8-1.79,1.8-3,0-1.03-.44-1.86-1.32-2.5-.88-.64-2.68-1.08-5.41-1.32l-5.26-.55c-5-.48-8.82-1.85-11.46-4.09-2.63-2.24-3.95-5.37-3.95-9.37,0-4.37,1.69-7.81,5.07-10.33,3.38-2.51,8.16-3.77,14.34-3.77,4.03,0,7.67.51,10.92,1.54,3.25,1.03,5.98,2.34,8.19,3.91.45.43.49.88.1,1.36l-5.46,6.28c-.39.43-.84.49-1.36.18-1.63-.97-3.54-1.8-5.75-2.5s-4.55-1.05-7.02-1.05c-2.01,0-3.51.33-4.48,1-.98.67-1.47,1.54-1.47,2.64,0,1.03.42,1.84,1.27,2.41.84.58,2.6.99,5.26,1.23l5.17.54c5.59.49,9.6,1.91,12.04,4.27,2.44,2.37,3.66,5.4,3.66,9.1-.07,4.55-1.9,8.2-5.51,10.96-3.6,2.76-8.79,4.14-15.55,4.14Z"/>
      <path class="cls-1" d="M57.21,56.06c0,.37-.19.55-.59.55h-2.92c-.65,0-.98.3-.98.91v7.55c0,.6.33.91.98.91h2.92c.39,0,.59.18.59.55v20.01c0,5.04,1.14,8.74,3.41,11.1,2.28,2.36,6.14,3.55,11.6,3.55h5.17c.65,0,.97-.3.97-.91v-9c0-.61-.32-.91-.97-.91h-2.34c-1.56,0-2.66-.32-3.31-.96-.65-.64-.97-1.77-.97-3.41v-19.47c0-.37.2-.55.59-.55h6.04c.65,0,.97-.3.97-.91v-7.55c0-.6-.32-.91-.97-.91h-6.04c-.39,0-.59-.18-.59-.55v-12.42l-13.55,3.64v8.78Z"/>
      <path class="cls-1" d="M126.72,100.64c-.65,0-.97-.3-.97-.91v-42.21c0-.6.32-.91.97-.91h11.7c.65,0,.98.3.98.91v42.21c0,.6-.33.91-.98.91h-11.7Z"/>
      <path class="cls-1" d="M101.4,101.64c-5.4,0-9.88-1.09-13.45-3.28-3.58-2.18-6.04-5.28-7.41-9.28-.52-1.39-.93-2.91-1.22-4.55-.29-1.64-.44-3.61-.44-5.91s.13-4.29.39-5.96c.26-1.67.65-3.2,1.17-4.59,1.37-4,3.82-7.08,7.36-9.23,3.54-2.15,7.85-3.23,12.92-3.23s9.63,1.09,13.11,3.28c3.48,2.18,5.9,5.22,7.26,9.1.26.73.49,1.5.68,2.32.2.82.36,1.75.49,2.78.13,1.03.23,2.23.29,3.59.07,1.37.1,2.99.1,4.87,0,.6-.36.91-1.07.91h-28.57c-.39,0-.59.18-.59.55.07.91.26,1.73.59,2.45.65,1.94,1.82,3.4,3.51,4.37,1.69.97,3.77,1.46,6.24,1.46s4.39-.35,6.14-1.05,3.31-1.65,4.68-2.87c.59-.42,1.04-.42,1.36,0l6.44,5.64c.52.43.55.85.1,1.27-2.28,2.24-5.1,4.03-8.48,5.37-3.38,1.33-7.25,2-11.6,2ZM108.62,73.98c.39,0,.59-.18.59-.55,0-.66-.05-1.25-.15-1.77-.1-.51-.22-1.02-.34-1.5-.52-1.52-1.48-2.7-2.88-3.55-1.4-.85-3.07-1.27-5.02-1.27s-3.62.43-5.02,1.27c-1.4.85-2.35,2.03-2.87,3.55-.13.49-.24.99-.34,1.5-.1.51-.15,1.1-.15,1.77,0,.37.2.55.59.55h15.6Z"/>
      <path class="cls-1" d="M174.69,100.64c-.65,0-.97-.3-.97-.91v-25.29c0-2.43-.6-4.37-1.8-5.82-1.2-1.46-3.04-2.19-5.51-2.19-2.34,0-4.16.73-5.46,2.19-1.3,1.45-1.95,3.39-1.95,5.82v25.29c0,.6-.33.91-.98.91h-11.7c-.65,0-.97-.3-.97-.91v-42.21c0-.6.32-.91.97-.91h11.7c.65,0,.98.3.98.91v3.09h.09c1.1-1.4,2.65-2.58,4.63-3.55,1.98-.97,4.5-1.46,7.55-1.46,2.6,0,4.91.4,6.92,1.18,2.01.79,3.7,1.91,5.07,3.37,1.37,1.45,2.39,3.18,3.07,5.18.68,2,1.03,4.22,1.03,6.64v27.74c0,.6-.33.91-.98.91h-11.7Z"/>
    </g>
    <g>
      <g>
        <path class="cls-3" d="M203.23,77.8c0-2.43.13-4.53.39-6.32.26-1.79.62-3.35,1.07-4.68,1.3-3.82,3.57-6.73,6.83-8.74,3.25-2,7.12-3,11.6-3,3.57,0,6.71.66,9.41,1.96,2.7,1.31,4.89,3.11,6.58,5.41.33.49.23.91-.29,1.27l-4.29,3.28c-.52.36-.98.33-1.37-.09-1.36-1.58-2.79-2.76-4.29-3.55-1.5-.79-3.41-1.18-5.75-1.18-2.53,0-4.71.56-6.53,1.68-1.82,1.12-3.12,2.84-3.9,5.14-.39,1.15-.67,2.43-.83,3.82-.16,1.4-.24,3.06-.24,5s.08,3.62.24,5.05c.16,1.43.44,2.72.83,3.87.78,2.3,2.08,4.02,3.9,5.14,1.82,1.12,4,1.68,6.53,1.68,2.34,0,4.26-.39,5.75-1.18,1.49-.79,2.93-1.97,4.29-3.55.39-.43.84-.45,1.37-.09l4.29,3.28c.52.37.62.79.29,1.27-1.69,2.3-3.88,4.11-6.58,5.41-2.7,1.3-5.84,1.96-9.41,1.96-4.48,0-8.35-1-11.6-3-3.25-2-5.52-4.92-6.83-8.74-.45-1.33-.81-2.89-1.07-4.68-.26-1.79-.39-3.93-.39-6.41Z"/>
        <path class="cls-3" d="M244.27,99.64c-.65,0-.97-.3-.97-.91v-41.76c0-.6.32-.91.97-.91h6.24c.65,0,.97.3.97.91v4.46h.1c1.04-1.88,2.58-3.41,4.63-4.59,2.05-1.18,4.63-1.77,7.75-1.77,1.88,0,3.66.29,5.31.87,1.66.58,3.07,1.38,4.24,2.41.45.43.52.85.2,1.27l-3.6,4.46c-.39.49-.85.54-1.37.18-1.1-.67-2.24-1.18-3.41-1.55-1.17-.36-2.43-.54-3.8-.54-3.58,0-6.14,1.17-7.7,3.5-1.56,2.34-2.34,5.41-2.34,9.23v23.83c0,.6-.33.91-.97.91h-6.24Z"/>
        <path class="cls-3" d="M291.95,100.64c-4.74,0-8.72-1.02-11.94-3.05-3.22-2.03-5.48-4.96-6.77-8.78-.52-1.4-.91-2.94-1.17-4.64-.26-1.7-.39-3.82-.39-6.37s.11-4.69.34-6.41c.22-1.73.6-3.26,1.12-4.59,1.3-3.82,3.56-6.73,6.77-8.74,3.22-2,7.07-3,11.55-3s8.34,1.02,11.55,3.05c3.22,2.03,5.47,4.93,6.77,8.69.26.73.47,1.47.64,2.23.16.76.3,1.62.44,2.59.13.97.23,2.07.29,3.32.07,1.24.1,2.68.1,4.32,0,.6-.36.91-1.07.91h-29.54c-.39,0-.59.18-.59.55,0,1.21.06,2.21.19,3,.13.79.33,1.54.59,2.27.91,2.55,2.37,4.45,4.39,5.69,2.02,1.25,4.48,1.86,7.41,1.86s5.17-.45,7.12-1.36c1.95-.91,3.58-2.06,4.88-3.46.52-.48,1.01-.54,1.46-.18l4,3.36c.45.37.49.79.1,1.27-1.89,2.19-4.37,3.97-7.46,5.37-3.09,1.4-6.68,2.09-10.78,2.09ZM302.28,74.07c.39,0,.59-.18.59-.54,0-2-.23-3.64-.68-4.92-.78-2.18-2.1-3.86-3.95-5.05-1.85-1.18-4.12-1.77-6.78-1.77s-4.92.59-6.77,1.77c-1.85,1.18-3.17,2.87-3.95,5.05-.45,1.27-.68,2.91-.68,4.92,0,.36.19.54.59.54h21.64Z"/>
        <path class="cls-3" d="M329.19,100.09c-4.55,0-7.78-.98-9.7-2.95-1.91-1.97-2.87-5.11-2.87-9.41v-24.92c0-.37-.2-.55-.59-.55h-3.9c-.65,0-.97-.3-.97-.91v-4.37c0-.6.32-.91.97-.91h3.9c.39,0,.59-.18.59-.55v-12.28c0-.6.32-.91.97-.91h6.24c.65,0,.97.3.97.91v12.28c0,.37.2.55.59.55h7.41c.65,0,.97.3.97.91v4.37c0,.61-.32.91-.97.91h-7.41c-.39,0-.59.18-.59.55v24.65c0,2.19.47,3.66,1.41,4.41.94.76,2.45,1.14,4.54,1.14h2.05c.65,0,.97.3.97.91v5.28c0,.6-.32.91-.97.91h-3.61Z"/>
        <path class="cls-3" d="M355.12,100.64c-4.74,0-8.72-1.02-11.94-3.05-3.22-2.03-5.48-4.96-6.77-8.78-.52-1.4-.91-2.94-1.17-4.64-.26-1.7-.39-3.82-.39-6.37s.11-4.69.34-6.41c.22-1.73.6-3.26,1.12-4.59,1.3-3.82,3.56-6.73,6.77-8.74,3.22-2,7.07-3,11.55-3s8.34,1.02,11.55,3.05c3.22,2.03,5.47,4.93,6.77,8.69.26.73.47,1.47.64,2.23.16.76.3,1.62.44,2.59.13.97.23,2.07.29,3.32.07,1.24.1,2.68.1,4.32,0,.6-.36.91-1.07.91h-29.54c-.39,0-.59.18-.59.55,0,1.21.06,2.21.19,3,.13.79.33,1.54.59,2.27.91,2.55,2.37,4.45,4.39,5.69,2.02,1.25,4.48,1.86,7.41,1.86s5.17-.45,7.12-1.36c1.95-.91,3.58-2.06,4.88-3.46.52-.48,1.01-.54,1.46-.18l4,3.36c.45.37.49.79.1,1.27-1.89,2.19-4.37,3.97-7.46,5.37-3.09,1.4-6.68,2.09-10.78,2.09ZM365.46,74.07c.39,0,.59-.18.59-.54,0-2-.23-3.64-.68-4.92-.78-2.18-2.1-3.86-3.95-5.05-1.85-1.18-4.12-1.77-6.78-1.77s-4.92.59-6.77,1.77c-1.85,1.18-3.17,2.87-3.95,5.05-.45,1.27-.68,2.91-.68,4.92,0,.36.19.54.59.54h21.64Z"/>
      </g>
      <rect class="cls-3" x="306.98" y="43.39" width="6.18" height="31.47" transform="translate(369.19 -250.94) rotate(90)"/>
    </g>
  </g>
</svg>