<?xml version="1.0" encoding="UTF-8"?>
<svg width="500" xmlns="http://www.w3.org/2000/svg" version="1.1" viewBox="0 0 595.28 841.89">
  <defs>
    <style>
      .cls-1 {
        fill: #fff;
      }

      .cls-2 {
        fill: #f68b1f;
      }

      .cls-3 {
        fill: #40515a;
      }
    </style>
  </defs>
  <!-- Generator: Adobe Illustrator 28.7.3, SVG Export Plug-In . SVG Version: 1.2.0 Build 164)  -->
  <g>
    <g id="Layer_1">
      <g>
        <path class="cls-2" d="M518.43,314.98l-34.23,9.06-111.52,29.88h0s-100.6,26.96-100.6,26.96c-7.08,1.9-14.59,1.4-21.36-1.4l-101.07,51.11c0,11.22,6.76,21.34,17.13,25.64l83.77,34.7c6.89,2.85,14.52,3.35,21.72,1.42l100.42-26.91h0s111.52-29.88,111.52-29.88l55.46-14.68v-89.56c0-11.09-10.5-19.18-21.23-16.34Z"/>
        <path class="cls-3" d="M314.42,348l-49.12-20.35c-4.04-1.67-8.51-1.97-12.73-.83l-58.88,15.78h0s-65.39,17.52-65.39,17.52l-32.52,8.61v52.51-47.58,54.52c0,6.58,3.96,12.51,10.04,15.03l49.12,20.35c4.04,1.67,8.51,1.97,12.73.83l58.88-15.78h0s65.39-17.52,65.39-17.52l32.52-8.61v-52.51,47.58-54.52c0-6.58-3.96-12.51-10.04-15.03Z"/>
        <g>
          <path class="cls-1" d="M256.41,370.13l-13.88,3.73c-.61.16-1.21-.3-1.21-.93v-9.09c0-.43.29-.81.71-.93l13.88-3.73c.61-.16,1.21.3,1.21.93v9.09c0,.43-.29.81-.71.93Z"/>
          <g>
            <path class="cls-1" d="M133.22,432.05c-5.72,0-10.63-.79-14.73-2.37-4.1-1.58-7.47-3.42-10.1-5.53-.53-.49-.53-.98,0-1.47l7.34-7.68c.45-.42.98-.42,1.58,0,2.41,1.76,5.08,3.13,8.01,4.11,2.93.98,5.83,1.47,8.69,1.47s4.98-.46,6.37-1.37c1.39-.91,2.09-2.07,2.09-3.47,0-1.19-.5-2.16-1.52-2.89-1.01-.74-3.1-1.25-6.26-1.53l-6.09-.63c-5.79-.56-10.21-2.14-13.26-4.74-3.05-2.6-4.57-6.21-4.57-10.84,0-5.06,1.95-9.04,5.86-11.95,3.91-2.91,9.45-4.37,16.59-4.37,4.66,0,8.88.6,12.64,1.79,3.76,1.2,6.92,2.7,9.48,4.53.53.49.57,1.02.11,1.58l-6.32,7.27c-.45.49-.98.56-1.58.21-1.89-1.12-4.1-2.09-6.66-2.89-2.56-.81-5.27-1.21-8.13-1.21-2.33,0-4.06.38-5.19,1.16-1.13.77-1.7,1.79-1.7,3.05,0,1.2.49,2.12,1.47,2.79.98.67,3.01,1.14,6.09,1.43l5.98.63c6.47.56,11.11,2.21,13.94,4.95,2.82,2.74,4.23,6.25,4.23,10.53-.08,5.27-2.2,9.49-6.38,12.69-4.17,3.19-10.17,4.79-18,4.79Z"/>
            <path class="cls-1" d="M162,379.3c0,.42-.22.63-.68.63h-3.38c-.75,0-1.13.35-1.13,1.05v8.74c0,.7.38,1.05,1.13,1.05h3.38c.46,0,.68.21.68.63v23.16c0,5.83,1.32,10.11,3.95,12.85,2.63,2.74,7.11,4.11,13.43,4.11h5.98c.75,0,1.13-.35,1.13-1.06v-10.42c0-.7-.37-1.06-1.13-1.06h-2.71c-1.8,0-3.08-.37-3.84-1.11-.75-.74-1.13-2.05-1.13-3.95v-22.53c0-.42.23-.63.68-.63h7c.75,0,1.13-.35,1.13-1.05v-8.74c0-.7-.37-1.05-1.13-1.05h-7c-.45,0-.68-.21-.68-.63v-14.38l-15.69,4.22v10.16Z"/>
            <path class="cls-1" d="M242.45,430.89c-.75,0-1.13-.35-1.13-1.05v-48.86c0-.7.37-1.05,1.13-1.05h13.54c.75,0,1.13.35,1.13,1.05v48.86c0,.7-.38,1.05-1.13,1.05h-13.54Z"/>
            <path class="cls-1" d="M213.14,432.05c-6.25,0-11.44-1.26-15.57-3.79-4.14-2.53-7-6.11-8.58-10.74-.6-1.61-1.07-3.37-1.41-5.26-.34-1.9-.51-4.18-.51-6.84s.15-4.96.45-6.9c.3-1.93.75-3.7,1.35-5.32,1.58-4.63,4.42-8.19,8.52-10.69,4.1-2.49,9.08-3.74,14.95-3.74s11.15,1.26,15.18,3.79c4.03,2.53,6.83,6.04,8.4,10.53.3.84.57,1.73.79,2.68.23.95.41,2.02.56,3.21.15,1.19.27,2.58.34,4.16.08,1.58.11,3.46.11,5.64,0,.7-.42,1.05-1.24,1.05h-33.07c-.45,0-.68.21-.68.63.08,1.05.3,2,.68,2.84.75,2.25,2.1,3.93,4.06,5.06,1.95,1.12,4.36,1.69,7.22,1.69s5.08-.41,7.11-1.21,3.84-1.91,5.42-3.32c.68-.49,1.2-.49,1.58,0l7.45,6.53c.6.49.64.98.11,1.47-2.63,2.6-5.91,4.67-9.82,6.21-3.91,1.54-8.39,2.32-13.43,2.32ZM221.49,400.04c.45,0,.68-.21.68-.63,0-.77-.06-1.45-.17-2.05-.11-.6-.25-1.18-.4-1.74-.61-1.76-1.71-3.12-3.33-4.11-1.61-.98-3.55-1.47-5.81-1.47s-4.19.49-5.81,1.47c-1.61.99-2.73,2.35-3.33,4.11-.15.56-.28,1.14-.4,1.74-.11.6-.17,1.28-.17,2.05,0,.42.23.63.68.63h18.06Z"/>
            <path class="cls-1" d="M297.97,430.89c-.75,0-1.13-.35-1.13-1.05v-29.27c0-2.81-.69-5.06-2.09-6.74-1.39-1.69-3.52-2.53-6.38-2.53-2.71,0-4.81.85-6.32,2.53-1.51,1.68-2.25,3.93-2.25,6.74v29.27c0,.7-.38,1.05-1.13,1.05h-13.54c-.75,0-1.13-.35-1.13-1.05v-48.86c0-.7.37-1.05,1.13-1.05h13.54c.75,0,1.13.35,1.13,1.05v3.58h.11c1.28-1.61,3.07-2.99,5.36-4.11,2.29-1.12,5.21-1.69,8.74-1.69,3.01,0,5.68.46,8.01,1.37,2.33.91,4.29,2.21,5.87,3.9,1.58,1.68,2.76,3.68,3.55,6,.79,2.32,1.19,4.88,1.19,7.69v32.11c0,.7-.38,1.05-1.13,1.05h-13.54Z"/>
          </g>
          <g>
            <g>
              <path class="cls-3" d="M331.01,404.46c0-2.81.15-5.25.45-7.32.3-2.07.72-3.87,1.24-5.42,1.51-4.42,4.13-7.79,7.9-10.11,3.76-2.31,8.24-3.47,13.43-3.47,4.13,0,7.77.76,10.89,2.27,3.12,1.51,5.66,3.6,7.61,6.26.38.56.27,1.05-.34,1.47l-4.96,3.79c-.61.42-1.13.38-1.58-.11-1.58-1.83-3.24-3.19-4.96-4.11-1.73-.91-3.95-1.37-6.66-1.37-2.93,0-5.46.65-7.56,1.95-2.11,1.3-3.61,3.28-4.51,5.95-.46,1.33-.77,2.81-.96,4.42-.19,1.61-.28,3.54-.28,5.79s.09,4.19.28,5.84c.18,1.65.5,3.14.96,4.48.9,2.67,2.41,4.65,4.51,5.95,2.1,1.3,4.63,1.95,7.56,1.95,2.71,0,4.93-.46,6.66-1.37,1.73-.92,3.39-2.28,4.96-4.11.45-.49.98-.53,1.58-.11l4.96,3.79c.6.42.72.91.34,1.47-1.96,2.67-4.49,4.76-7.61,6.26-3.13,1.51-6.76,2.27-10.89,2.27-5.19,0-9.67-1.16-13.43-3.47-3.77-2.32-6.39-5.69-7.9-10.11-.53-1.54-.94-3.35-1.24-5.42-.3-2.07-.45-4.55-.45-7.42Z"/>
              <path class="cls-3" d="M378.52,429.73c-.75,0-1.13-.35-1.13-1.05v-48.33c0-.7.37-1.05,1.13-1.05h7.22c.75,0,1.13.35,1.13,1.05v5.16h.11c1.2-2.17,2.99-3.95,5.36-5.32,2.37-1.37,5.36-2.05,8.97-2.05,2.18,0,4.23.34,6.15,1,1.92.67,3.55,1.6,4.9,2.79.53.49.6.98.23,1.47l-4.17,5.16c-.46.56-.98.63-1.58.21-1.28-.77-2.6-1.37-3.95-1.79-1.35-.42-2.82-.63-4.4-.63-4.14,0-7.11,1.35-8.91,4.05-1.8,2.7-2.71,6.26-2.71,10.69v27.59c0,.7-.38,1.05-1.13,1.05h-7.22Z"/>
              <path class="cls-3" d="M433.7,430.89c-5.49,0-10.1-1.18-13.82-3.53-3.72-2.35-6.34-5.74-7.84-10.16-.6-1.61-1.06-3.4-1.35-5.37-.3-1.97-.45-4.42-.45-7.37s.13-5.42.4-7.42c.26-2,.69-3.77,1.3-5.32,1.51-4.42,4.12-7.79,7.84-10.11,3.73-2.31,8.18-3.47,13.37-3.47s9.65,1.18,13.37,3.53c3.72,2.35,6.33,5.71,7.84,10.06.3.84.55,1.7.74,2.58.18.88.35,1.87.5,3,.15,1.12.27,2.4.34,3.84.08,1.44.11,3.11.11,5,0,.7-.42,1.05-1.24,1.05h-34.19c-.46,0-.68.21-.68.63,0,1.4.07,2.56.22,3.47.15.91.38,1.79.68,2.63,1.06,2.95,2.75,5.15,5.08,6.58,2.34,1.44,5.19,2.16,8.58,2.16s5.98-.53,8.24-1.58c2.26-1.06,4.14-2.38,5.65-4,.6-.56,1.17-.63,1.69-.21l4.63,3.89c.53.42.56.92.11,1.47-2.18,2.53-5.06,4.6-8.63,6.22-3.58,1.61-7.73,2.42-12.47,2.42ZM445.66,400.15c.45,0,.68-.21.68-.63,0-2.32-.27-4.22-.79-5.69-.9-2.53-2.43-4.47-4.57-5.84-2.15-1.37-4.76-2.05-7.85-2.05s-5.7.68-7.84,2.05c-2.15,1.37-3.67,3.32-4.57,5.84-.53,1.47-.79,3.37-.79,5.69,0,.42.22.63.68.63h25.05Z"/>
              <path class="cls-3" d="M476.81,430.26c-5.27,0-9.01-1.14-11.23-3.42-2.22-2.28-3.33-5.91-3.33-10.9v-28.85c0-.42-.23-.63-.68-.63h-4.51c-.75,0-1.13-.35-1.13-1.05v-5.06c0-.7.37-1.05,1.13-1.05h4.51c.45,0,.68-.21.68-.63v-14.21c0-.7.37-1.05,1.13-1.05h7.22c.75,0,1.13.35,1.13,1.05v14.21c0,.42.23.63.68.63h8.58c.75,0,1.13.35,1.13,1.05v5.06c0,.7-.37,1.05-1.13,1.05h-8.58c-.45,0-.68.21-.68.63v28.53c0,2.53.55,4.23,1.64,5.11,1.09.88,2.84,1.32,5.25,1.32h2.37c.75,0,1.13.35,1.13,1.05v6.11c0,.7-.37,1.05-1.13,1.05h-4.18Z"/>
              <path class="cls-3" d="M506.82,430.89c-5.49,0-10.1-1.18-13.82-3.53-3.72-2.35-6.34-5.74-7.84-10.16-.6-1.61-1.06-3.4-1.35-5.37-.3-1.97-.45-4.42-.45-7.37s.13-5.42.4-7.42c.26-2,.69-3.77,1.3-5.32,1.51-4.42,4.12-7.79,7.84-10.11,3.73-2.31,8.18-3.47,13.37-3.47s9.65,1.18,13.37,3.53c3.72,2.35,6.33,5.71,7.84,10.06.3.84.55,1.7.74,2.58.18.88.35,1.87.5,3,.15,1.12.27,2.4.34,3.84.08,1.44.11,3.11.11,5,0,.7-.42,1.05-1.24,1.05h-34.19c-.46,0-.68.21-.68.63,0,1.4.07,2.56.22,3.47.15.91.38,1.79.68,2.63,1.06,2.95,2.75,5.15,5.08,6.58,2.34,1.44,5.19,2.16,8.58,2.16s5.98-.53,8.24-1.58c2.26-1.06,4.14-2.38,5.65-4,.6-.56,1.17-.63,1.69-.21l4.63,3.89c.53.42.56.92.11,1.47-2.18,2.53-5.06,4.6-8.63,6.22-3.58,1.61-7.73,2.42-12.47,2.42ZM518.79,400.15c.45,0,.68-.21.68-.63,0-2.32-.27-4.22-.79-5.69-.9-2.53-2.43-4.47-4.57-5.84-2.15-1.37-4.76-2.05-7.85-2.05s-5.7.68-7.84,2.05c-2.15,1.37-3.67,3.32-4.57,5.84-.53,1.47-.79,3.37-.79,5.69,0,.42.22.63.68.63h25.05Z"/>
            </g>
            <rect class="cls-3" x="451.1" y="364.63" width="7.15" height="36.42" transform="translate(837.52 -71.83) rotate(90)"/>
          </g>
        </g>
      </g>
    </g>
  </g>
</svg>